<svg id="Layer_1" data-name="Layer 1" xmlns="http://www.w3.org/2000/svg" viewBox="0 0 587 173">
  <defs>
    <style>
      @font-face {
      font-family: 'opendyslexicregular';
      src: url('opendyslexic-regular-webfont.woff2') format('woff2'),
          url('opendyslexic-regular-webfont.woff') format('woff');
      font-weight: normal;
      font-style: normal;
      }
      .cls-1,.cls-2{fill:#fff;}
      .cls-2{font-size:78px;font-family:OpenDyslexic-Regular, opendyslexicregular, OpenDyslexic;}
      .cls-3{letter-spacing:-0.03em;}
      .cls-4{letter-spacing:-0.02em;}
      .cls-5{letter-spacing:-0.04em;}
      .cls-6{letter-spacing:-0.02em;}
      .cls-7{letter-spacing:-0.03em;}
    </style>
  </defs>
  <path class="cls-1" d="M152.64,78c-.48,3.55,4.59,1,4.59,4.85,0,3.35-5.61,2.86-8.1,2.94-20.82.62-57.5.5-77.45,0-3.92-.1,1.64-2.37.2,1.82-1.61,4.66-5.26,8-9,11.15-6.16,5-5.9,9.76.84,14.19,7.28,4.79,14.58,9.53,21.9,14.3a1.49,1.49,0,0,1,.46,2.1c-.06.08-.12.13-.17.13-10.18.64-8.93,5.92-6.35,13,3.1,8.54,5.13,17.45,7.6,26.54A1.53,1.53,0,0,1,85.64,171H3.35a1.53,1.53,0,0,1-1.47-2c2.87-9.91,5.52-19.6,8.6-29.17,1.73-5.38,2.92-9.69-5.34-9.4a3.21,3.21,0,0,1-1.6-.51,1.53,1.53,0,0,1-.11-2.64c7.85-5.13,15.33-10,22.74-14.91,6-4,6.3-8.83.75-13.23C16.38,90.83,12,80.47,15.39,67.31c.38-1.45,1.35-3.74-1.24-3.74-14.95,0-2.59-4.94-.15-6.7,3.57-2.56,5-5.82,6.28-9.81C26.4,27.37,39.2,7,39.32,8.8c0,.21,0-.48.14-.63,5.46-5.45,3-6.47,6.54-3C58.43,17.62,65.22,32.72,69.5,49.86c.71,2.84,2.6,4.49,4.65,6.32,2.56,2.29,16,8.07.34,8.07-3.71,0-.29,7.38-.29,12.75,0,2.63-9,.37,4.52.37,19.13,0,46.52.41,65.38,1,2.07.07,5.15.58,6.75-.47A1,1,0,0,1,152.64,78Z"/><path class="cls-1" d="M152.64,78.55l-1.79,0C153.21,74.13,158,65.19,165.2,67,162.77,71.58,153.89,78.69,152.64,78.55Z"/><text class="cls-2"><tspan x="111.99" y="170.12">P</tspan><tspan class="cls-3" x="162.06" y="170.12">r</tspan><tspan class="cls-4" x="197.08" y="170.12">o</tspan><tspan x="245.76" y="170.12">ductions</tspan></text><text class="cls-2" transform="translate(173.05 65)">G<tspan class="cls-5" x="61.07" y="0">e</tspan><tspan x="108.73" y="0">n</tspan><tspan class="cls-6" x="158.57" y="0">o</tspan><tspan class="cls-7" x="207.25" y="0">c</tspan><tspan x="249.76" y="0">chio</tspan></text></svg>